<?xml version="1.0" encoding="UTF-8" standalone="no"?>
<!-- Created with Inkscape (http://www.inkscape.org/) -->

<svg
   width="84.618523"
   height="182.19322"
   viewBox="0 0 22.38865 48.20529"
   version="1.1"
   id="svg1"
   inkscape:version="1.3.2 (091e20e, 2023-11-25, custom)"
   sodipodi:docname="CrabDrawingScene.svg"
   xmlns:inkscape="http://www.inkscape.org/namespaces/inkscape"
   xmlns:sodipodi="http://sodipodi.sourceforge.net/DTD/sodipodi-0.dtd"
   xmlns="http://www.w3.org/2000/svg"
   xmlns:svg="http://www.w3.org/2000/svg">
  <sodipodi:namedview
     id="namedview1"
     pagecolor="#ffffff"
     bordercolor="#000000"
     borderopacity="0.25"
     inkscape:showpageshadow="2"
     inkscape:pageopacity="0.0"
     inkscape:pagecheckerboard="0"
     inkscape:deskcolor="#d1d1d1"
     inkscape:document-units="mm"
     showgrid="true"
     inkscape:zoom="1.0167041"
     inkscape:cx="101.30775"
     inkscape:cy="204.09085"
     inkscape:window-width="1920"
     inkscape:window-height="1010"
     inkscape:window-x="1698"
     inkscape:window-y="-7"
     inkscape:window-maximized="1"
     inkscape:current-layer="layer1">
    <inkscape:grid
       id="grid1"
       units="mm"
       originx="-19.688581"
       originy="-6.5499421"
       spacingx="63.999999"
       spacingy="63.999999"
       empcolor="#0099e5"
       empopacity="0.30196078"
       color="#0099e5"
       opacity="0.14901961"
       empspacing="5"
       dotted="false"
       gridanglex="30"
       gridanglez="30"
       visible="true" />
  </sodipodi:namedview>
  <defs
     id="defs1">
    <inkscape:path-effect
       effect="bspline"
       id="path-effect2-7-0"
       is_visible="true"
       lpeversion="1.3"
       weight="33.333333"
       steps="2"
       helper_size="0"
       apply_no_weight="true"
       apply_with_weight="true"
       only_selected="false"
       uniform="false" />
    <inkscape:path-effect
       effect="bspline"
       id="path-effect4-7-0"
       is_visible="true"
       lpeversion="1.3"
       weight="33.333333"
       steps="2"
       helper_size="0"
       apply_no_weight="true"
       apply_with_weight="true"
       only_selected="false"
       uniform="false" />
    <inkscape:path-effect
       effect="bspline"
       id="path-effect6-9-7"
       is_visible="true"
       lpeversion="1.3"
       weight="33.333333"
       steps="2"
       helper_size="0"
       apply_no_weight="true"
       apply_with_weight="true"
       only_selected="false"
       uniform="false" />
    <inkscape:path-effect
       effect="bspline"
       id="path-effect9-9-0"
       is_visible="true"
       lpeversion="1.3"
       weight="33.333333"
       steps="2"
       helper_size="0"
       apply_no_weight="true"
       apply_with_weight="true"
       only_selected="false"
       uniform="false" />
    <inkscape:path-effect
       effect="bspline"
       id="path-effect11-3-1"
       is_visible="true"
       lpeversion="1.3"
       weight="33.333333"
       steps="2"
       helper_size="0"
       apply_no_weight="true"
       apply_with_weight="true"
       only_selected="false"
       uniform="false" />
    <inkscape:path-effect
       effect="bspline"
       id="path-effect13-2-7"
       is_visible="true"
       lpeversion="1.3"
       weight="33.333333"
       steps="2"
       helper_size="0"
       apply_no_weight="true"
       apply_with_weight="true"
       only_selected="false"
       uniform="false" />
  </defs>
  <g
     inkscape:label="Layer 1"
     inkscape:groupmode="layer"
     id="layer1"
     transform="translate(-19.688582,-6.5499421)">
    <g
       id="g1"
       inkscape:export-filename="Crab.png"
       inkscape:export-xdpi="96"
       inkscape:export-ydpi="96"
       style="fill:#f3ad58">
      <ellipse
         style="fill:#f3ad58;fill-opacity:1;fill-rule:evenodd;stroke:#f7dde6;stroke-width:0.109282;stroke-linecap:round;stroke-linejoin:round;paint-order:stroke fill markers"
         id="path1-1-0"
         cx="30.603287"
         cy="-30.401247"
         rx="17.245047"
         ry="10.658025"
         transform="rotate(90)" />
      <path
         style="fill:#f3ad58;fill-opacity:1;fill-rule:evenodd;stroke:#f7dde6;stroke-width:0.2;stroke-linecap:round;stroke-linejoin:round;paint-order:stroke fill markers"
         d="m 91.733307,128.77361 c -0.130116,-0.0434 -0.91083,-0.13012 -3.816854,-1.43133 -2.906023,-1.30121 -7.937155,-3.81677 -9.975665,-3.59988 -2.038509,0.21689 -1.084327,3.16618 1.344585,5.59507 2.428911,2.42889 6.332377,4.33725 9.0215,5.29145 2.689123,0.9542 4.163768,0.9542 4.987851,0.0867 0.824082,-0.86747 0.997569,-2.60234 0.477083,-3.73004 -0.520486,-1.1277 -1.734896,-1.64816 -2.081872,-1.90839 -0.346975,-0.26024 0.173487,-0.26024 0.04337,-0.30361 z"
         id="path2-8-07"
         inkscape:path-effect="#path-effect2-7-0"
         inkscape:original-d="m 92.383895,128.81698 c -0.780709,-0.0867 -1.561418,-0.17349 -2.342129,-0.26024 -5.031335,-2.51567 -10.062469,-5.03123 -15.093706,-7.54685 0.954219,2.9494 1.908399,5.89869 2.862601,8.84803 3.903622,1.90844 7.807089,3.8168 11.710632,5.7252 1.474703,0 2.949348,0 4.424019,0 0.173495,-1.73494 0.346982,-3.46981 0.520472,-5.20472 -1.214461,-0.52049 -2.428872,-1.04095 -3.643307,-1.56142 0.520483,0 1.040945,0 1.561418,0 z"
         transform="matrix(0,0.54640915,-0.54640915,0,99.533261,-35.375709)" />
      <path
         style="fill:#f3ad58;fill-opacity:1;fill-rule:evenodd;stroke:#f7dde6;stroke-width:0.2;stroke-linecap:round;stroke-linejoin:round;paint-order:stroke fill markers"
         d="m 91.733307,128.77361 c -0.130116,-0.0434 -0.91083,-0.13012 -3.816854,-1.43133 -2.906023,-1.30121 -7.937155,-3.81677 -9.975665,-3.59988 -2.038509,0.21689 -1.084327,3.16618 1.344585,5.59507 2.428911,2.42889 6.332377,4.33725 9.0215,5.29145 2.689123,0.9542 4.163768,0.9542 4.987851,0.0867 0.824082,-0.86747 0.997569,-2.60234 0.477083,-3.73004 -0.520486,-1.1277 -1.734896,-1.64816 -2.081872,-1.90839 -0.346975,-0.26024 0.173487,-0.26024 0.04337,-0.30361 z"
         id="path3-2-4"
         inkscape:path-effect="#path-effect4-7-0"
         inkscape:original-d="m 92.383895,128.81698 c -0.780709,-0.0867 -1.561418,-0.17349 -2.342129,-0.26024 -5.031335,-2.51567 -10.062469,-5.03123 -15.093706,-7.54685 0.954219,2.9494 1.908399,5.89869 2.862601,8.84803 3.903622,1.90844 7.807089,3.8168 11.710632,5.7252 1.474703,0 2.949348,0 4.424019,0 0.173495,-1.73494 0.346982,-3.46981 0.520472,-5.20472 -1.214461,-0.52049 -2.428872,-1.04095 -3.643307,-1.56142 0.520483,0 1.040945,0 1.561418,0 z"
         transform="matrix(0,0.54640915,-0.54640915,0,105.36328,-35.375711)" />
      <path
         style="fill:#f3ad58;fill-opacity:1;fill-rule:evenodd;stroke:#f7dde6;stroke-width:0.2;stroke-linecap:round;stroke-linejoin:round;paint-order:stroke fill markers"
         d="m 91.733307,128.77361 c -0.130116,-0.0434 -0.91083,-0.13012 -3.816854,-1.43133 -2.906023,-1.30121 -7.937155,-3.81677 -9.975665,-3.59988 -2.038509,0.21689 -1.084327,3.16618 1.344585,5.59507 2.428911,2.42889 6.332377,4.33725 9.0215,5.29145 2.689123,0.9542 4.163768,0.9542 4.987851,0.0867 0.824082,-0.86747 0.997569,-2.60234 0.477083,-3.73004 -0.520486,-1.1277 -1.734896,-1.64816 -2.081872,-1.90839 -0.346975,-0.26024 0.173487,-0.26024 0.04337,-0.30361 z"
         id="path4-9-1"
         inkscape:path-effect="#path-effect6-9-7"
         inkscape:original-d="m 92.383895,128.81698 c -0.780709,-0.0867 -1.561418,-0.17349 -2.342129,-0.26024 -5.031335,-2.51567 -10.062469,-5.03123 -15.093706,-7.54685 0.954219,2.9494 1.908399,5.89869 2.862601,8.84803 3.903622,1.90844 7.807089,3.8168 11.710632,5.7252 1.474703,0 2.949348,0 4.424019,0 0.173495,-1.73494 0.346982,-3.46981 0.520472,-5.20472 -1.214461,-0.52049 -2.428872,-1.04095 -3.643307,-1.56142 0.520483,0 1.040945,0 1.561418,0 z"
         transform="matrix(0,0.54640915,-0.54640915,0,109.62914,-30.825453)" />
      <path
         style="fill:#f3ad58;fill-opacity:1;fill-rule:evenodd;stroke:#f7dde6;stroke-width:0.2;stroke-linecap:round;stroke-linejoin:round;paint-order:stroke fill markers"
         d="m 91.733307,128.77361 c -0.130116,-0.0434 -0.91083,-0.13012 -3.816854,-1.43133 -2.906023,-1.30121 -7.937155,-3.81677 -9.975665,-3.59988 -2.038509,0.21689 -1.084327,3.16618 1.344585,5.59507 2.428911,2.42889 6.332377,4.33725 9.0215,5.29145 2.689123,0.9542 4.163768,0.9542 4.987851,0.0867 0.824082,-0.86747 0.997569,-2.60234 0.477083,-3.73004 -0.520486,-1.1277 -1.734896,-1.64816 -2.081872,-1.90839 -0.346975,-0.26024 0.173487,-0.26024 0.04337,-0.30361 z"
         id="path6-0-4"
         inkscape:path-effect="#path-effect9-9-0"
         inkscape:original-d="m 92.383895,128.81698 c -0.780709,-0.0867 -1.561418,-0.17349 -2.342129,-0.26024 -5.031335,-2.51567 -10.062469,-5.03123 -15.093706,-7.54685 0.954219,2.9494 1.908399,5.89869 2.862601,8.84803 3.903622,1.90844 7.807089,3.8168 11.710632,5.7252 1.474703,0 2.949348,0 4.424019,0 0.173495,-1.73494 0.346982,-3.46981 0.520472,-5.20472 -1.214461,-0.52049 -2.428872,-1.04095 -3.643307,-1.56142 0.520483,0 1.040945,0 1.561418,0 z"
         transform="matrix(0,-0.54640915,-0.54640915,0,98.253499,96.680885)" />
      <path
         style="fill:#f3ad58;fill-opacity:1;fill-rule:evenodd;stroke:#f7dde6;stroke-width:0.2;stroke-linecap:round;stroke-linejoin:round;paint-order:stroke fill markers"
         d="m 91.733307,128.77361 c -0.130116,-0.0434 -0.91083,-0.13012 -3.816854,-1.43133 -2.906023,-1.30121 -7.937155,-3.81677 -9.975665,-3.59988 -2.038509,0.21689 -1.084327,3.16618 1.344585,5.59507 2.428911,2.42889 6.332377,4.33725 9.0215,5.29145 2.689123,0.9542 4.163768,0.9542 4.987851,0.0867 0.824082,-0.86747 0.997569,-2.60234 0.477083,-3.73004 -0.520486,-1.1277 -1.734896,-1.64816 -2.081872,-1.90839 -0.346975,-0.26024 0.173487,-0.26024 0.04337,-0.30361 z"
         id="path7-7-9"
         inkscape:path-effect="#path-effect11-3-1"
         inkscape:original-d="m 92.383895,128.81698 c -0.780709,-0.0867 -1.561418,-0.17349 -2.342129,-0.26024 -5.031335,-2.51567 -10.062469,-5.03123 -15.093706,-7.54685 0.954219,2.9494 1.908399,5.89869 2.862601,8.84803 3.903622,1.90844 7.807089,3.8168 11.710632,5.7252 1.474703,0 2.949348,0 4.424019,0 0.173495,-1.73494 0.346982,-3.46981 0.520472,-5.20472 -1.214461,-0.52049 -2.428872,-1.04095 -3.643307,-1.56142 0.520483,0 1.040945,0 1.561418,0 z"
         transform="matrix(0,-0.54640915,-0.54640915,0,104.08351,96.680885)" />
      <path
         style="fill:#f3ad58;fill-opacity:1;fill-rule:evenodd;stroke:#f7dde6;stroke-width:0.2;stroke-linecap:round;stroke-linejoin:round;paint-order:stroke fill markers"
         d="m 91.733307,128.77361 c -0.130116,-0.0434 -0.91083,-0.13012 -3.816854,-1.43133 -2.906023,-1.30121 -7.937155,-3.81677 -9.975665,-3.59988 -2.038509,0.21689 -1.084327,3.16618 1.344585,5.59507 2.428911,2.42889 6.332377,4.33725 9.0215,5.29145 2.689123,0.9542 4.163768,0.9542 4.987851,0.0867 0.824082,-0.86747 0.997569,-2.60234 0.477083,-3.73004 -0.520486,-1.1277 -1.734896,-1.64816 -2.081872,-1.90839 -0.346975,-0.26024 0.173487,-0.26024 0.04337,-0.30361 z"
         id="path8-5-5"
         inkscape:path-effect="#path-effect13-2-7"
         inkscape:original-d="m 92.383895,128.81698 c -0.780709,-0.0867 -1.561418,-0.17349 -2.342129,-0.26024 -5.031335,-2.51567 -10.062469,-5.03123 -15.093706,-7.54685 0.954219,2.9494 1.908399,5.89869 2.862601,8.84803 3.903622,1.90844 7.807089,3.8168 11.710632,5.7252 1.474703,0 2.949348,0 4.424019,0 0.173495,-1.73494 0.346982,-3.46981 0.520472,-5.20472 -1.214461,-0.52049 -2.428872,-1.04095 -3.643307,-1.56142 0.520483,0 1.040945,0 1.561418,0 z"
         transform="matrix(0,-0.54640915,-0.54640915,0,108.34938,92.130624)" />
    </g>
  </g>
</svg>
