<?xml version="1.0" encoding="UTF-8" standalone="no"?>
<!-- Created with Inkscape (http://www.inkscape.org/) -->

<svg
   width="630"
   height="500"
   viewBox="0 0 166.6875 132.29167"
   version="1.1"
   id="svg1"
   inkscape:version="1.3.2 (091e20e, 2023-11-25, custom)"
   sodipodi:docname="Promo.svg"
   xmlns:inkscape="http://www.inkscape.org/namespaces/inkscape"
   xmlns:sodipodi="http://sodipodi.sourceforge.net/DTD/sodipodi-0.dtd"
   xmlns="http://www.w3.org/2000/svg"
   xmlns:svg="http://www.w3.org/2000/svg">
  <sodipodi:namedview
     id="namedview1"
     pagecolor="#ffffff"
     bordercolor="#000000"
     borderopacity="0.25"
     inkscape:showpageshadow="2"
     inkscape:pageopacity="0.0"
     inkscape:pagecheckerboard="0"
     inkscape:deskcolor="#d1d1d1"
     inkscape:document-units="mm"
     inkscape:zoom="0.71891835"
     inkscape:cx="226.7295"
     inkscape:cy="323.40251"
     inkscape:window-width="1920"
     inkscape:window-height="1010"
     inkscape:window-x="1699"
     inkscape:window-y="-6"
     inkscape:window-maximized="1"
     inkscape:current-layer="layer1" />
  <defs
     id="defs1">
    <inkscape:path-effect
       effect="bspline"
       id="path-effect17"
       is_visible="true"
       lpeversion="1.3"
       weight="33.333333"
       steps="2"
       helper_size="0"
       apply_no_weight="true"
       apply_with_weight="true"
       only_selected="false"
       uniform="false" />
    <inkscape:path-effect
       effect="bspline"
       id="path-effect15"
       is_visible="true"
       lpeversion="1.3"
       weight="33.333333"
       steps="2"
       helper_size="0"
       apply_no_weight="true"
       apply_with_weight="true"
       only_selected="false"
       uniform="false" />
    <inkscape:path-effect
       effect="bspline"
       id="path-effect13"
       is_visible="true"
       lpeversion="1.3"
       weight="33.333333"
       steps="2"
       helper_size="0"
       apply_no_weight="true"
       apply_with_weight="true"
       only_selected="false"
       uniform="false" />
    <inkscape:path-effect
       effect="bspline"
       id="path-effect11"
       is_visible="true"
       lpeversion="1.3"
       weight="33.333333"
       steps="2"
       helper_size="0"
       apply_no_weight="true"
       apply_with_weight="true"
       only_selected="false"
       uniform="false" />
    <inkscape:path-effect
       effect="bspline"
       id="path-effect9"
       is_visible="true"
       lpeversion="1.3"
       weight="33.333333"
       steps="2"
       helper_size="0"
       apply_no_weight="true"
       apply_with_weight="true"
       only_selected="false"
       uniform="false" />
    <inkscape:path-effect
       effect="bspline"
       id="path-effect7"
       is_visible="true"
       lpeversion="1.3"
       weight="33.333333"
       steps="2"
       helper_size="0"
       apply_no_weight="true"
       apply_with_weight="true"
       only_selected="false"
       uniform="false" />
    <inkscape:path-effect
       effect="bspline"
       id="path-effect2-7-0"
       is_visible="true"
       lpeversion="1.3"
       weight="33.333333"
       steps="2"
       helper_size="0"
       apply_no_weight="true"
       apply_with_weight="true"
       only_selected="false"
       uniform="false" />
    <inkscape:path-effect
       effect="bspline"
       id="path-effect4-7-0"
       is_visible="true"
       lpeversion="1.3"
       weight="33.333333"
       steps="2"
       helper_size="0"
       apply_no_weight="true"
       apply_with_weight="true"
       only_selected="false"
       uniform="false" />
    <inkscape:path-effect
       effect="bspline"
       id="path-effect6-9-7"
       is_visible="true"
       lpeversion="1.3"
       weight="33.333333"
       steps="2"
       helper_size="0"
       apply_no_weight="true"
       apply_with_weight="true"
       only_selected="false"
       uniform="false" />
    <inkscape:path-effect
       effect="bspline"
       id="path-effect9-9-0"
       is_visible="true"
       lpeversion="1.3"
       weight="33.333333"
       steps="2"
       helper_size="0"
       apply_no_weight="true"
       apply_with_weight="true"
       only_selected="false"
       uniform="false" />
    <inkscape:path-effect
       effect="bspline"
       id="path-effect11-3-1"
       is_visible="true"
       lpeversion="1.3"
       weight="33.333333"
       steps="2"
       helper_size="0"
       apply_no_weight="true"
       apply_with_weight="true"
       only_selected="false"
       uniform="false" />
    <inkscape:path-effect
       effect="bspline"
       id="path-effect13-2-7"
       is_visible="true"
       lpeversion="1.3"
       weight="33.333333"
       steps="2"
       helper_size="0"
       apply_no_weight="true"
       apply_with_weight="true"
       only_selected="false"
       uniform="false" />
  </defs>
  <g
     inkscape:label="Layer 1"
     inkscape:groupmode="layer"
     id="layer1">
    <rect
       style="fill:#729fcf;fill-rule:evenodd;stroke:#a40000;stroke-width:1;stroke-linecap:round;stroke-linejoin:round;stroke-dasharray:none;paint-order:stroke fill markers"
       id="rect19"
       width="191.7435"
       height="150.15613"
       x="-13.24907"
       y="-7.7286248" />
    <g
       id="g2"
       inkscape:export-filename="Crab.svg"
       inkscape:export-xdpi="96"
       inkscape:export-ydpi="96"
       style="fill:#f3ad58"
       transform="matrix(1.1252743,-1.1252743,1.1252743,1.1252743,12.231225,108.00473)">
      <ellipse
         style="fill:#f3ad58;fill-opacity:1;fill-rule:evenodd;stroke:#f7dde6;stroke-width:0.109282;stroke-linecap:round;stroke-linejoin:round;paint-order:stroke fill markers"
         id="path1-1-0"
         cx="30.603287"
         cy="-30.401247"
         rx="17.245047"
         ry="10.658025"
         transform="rotate(90)" />
      <path
         style="fill:#f3ad58;fill-opacity:1;fill-rule:evenodd;stroke:#f7dde6;stroke-width:0.2;stroke-linecap:round;stroke-linejoin:round;paint-order:stroke fill markers"
         d="m 91.733307,128.77361 c -0.130116,-0.0434 -0.91083,-0.13012 -3.816854,-1.43133 -2.906023,-1.30121 -7.937155,-3.81677 -9.975665,-3.59988 -2.038509,0.21689 -1.084327,3.16618 1.344585,5.59507 2.428911,2.42889 6.332377,4.33725 9.0215,5.29145 2.689123,0.9542 4.163768,0.9542 4.987851,0.0867 0.824082,-0.86747 0.997569,-2.60234 0.477083,-3.73004 -0.520486,-1.1277 -1.734896,-1.64816 -2.081872,-1.90839 -0.346975,-0.26024 0.173487,-0.26024 0.04337,-0.30361 z"
         id="path2-8-07"
         inkscape:path-effect="#path-effect2-7-0"
         inkscape:original-d="m 92.383895,128.81698 c -0.780709,-0.0867 -1.561418,-0.17349 -2.342129,-0.26024 -5.031335,-2.51567 -10.062469,-5.03123 -15.093706,-7.54685 0.954219,2.9494 1.908399,5.89869 2.862601,8.84803 3.903622,1.90844 7.807089,3.8168 11.710632,5.7252 1.474703,0 2.949348,0 4.424019,0 0.173495,-1.73494 0.346982,-3.46981 0.520472,-5.20472 -1.214461,-0.52049 -2.428872,-1.04095 -3.643307,-1.56142 0.520483,0 1.040945,0 1.561418,0 z"
         transform="matrix(0,0.54640915,-0.54640915,0,99.533261,-35.375709)" />
      <path
         style="fill:#f3ad58;fill-opacity:1;fill-rule:evenodd;stroke:#f7dde6;stroke-width:0.2;stroke-linecap:round;stroke-linejoin:round;paint-order:stroke fill markers"
         d="m 91.733307,128.77361 c -0.130116,-0.0434 -0.91083,-0.13012 -3.816854,-1.43133 -2.906023,-1.30121 -7.937155,-3.81677 -9.975665,-3.59988 -2.038509,0.21689 -1.084327,3.16618 1.344585,5.59507 2.428911,2.42889 6.332377,4.33725 9.0215,5.29145 2.689123,0.9542 4.163768,0.9542 4.987851,0.0867 0.824082,-0.86747 0.997569,-2.60234 0.477083,-3.73004 -0.520486,-1.1277 -1.734896,-1.64816 -2.081872,-1.90839 -0.346975,-0.26024 0.173487,-0.26024 0.04337,-0.30361 z"
         id="path3-2-4"
         inkscape:path-effect="#path-effect4-7-0"
         inkscape:original-d="m 92.383895,128.81698 c -0.780709,-0.0867 -1.561418,-0.17349 -2.342129,-0.26024 -5.031335,-2.51567 -10.062469,-5.03123 -15.093706,-7.54685 0.954219,2.9494 1.908399,5.89869 2.862601,8.84803 3.903622,1.90844 7.807089,3.8168 11.710632,5.7252 1.474703,0 2.949348,0 4.424019,0 0.173495,-1.73494 0.346982,-3.46981 0.520472,-5.20472 -1.214461,-0.52049 -2.428872,-1.04095 -3.643307,-1.56142 0.520483,0 1.040945,0 1.561418,0 z"
         transform="matrix(0,0.54640915,-0.54640915,0,105.36328,-35.375711)" />
      <path
         style="fill:#f3ad58;fill-opacity:1;fill-rule:evenodd;stroke:#f7dde6;stroke-width:0.2;stroke-linecap:round;stroke-linejoin:round;paint-order:stroke fill markers"
         d="m 91.733307,128.77361 c -0.130116,-0.0434 -0.91083,-0.13012 -3.816854,-1.43133 -2.906023,-1.30121 -7.937155,-3.81677 -9.975665,-3.59988 -2.038509,0.21689 -1.084327,3.16618 1.344585,5.59507 2.428911,2.42889 6.332377,4.33725 9.0215,5.29145 2.689123,0.9542 4.163768,0.9542 4.987851,0.0867 0.824082,-0.86747 0.997569,-2.60234 0.477083,-3.73004 -0.520486,-1.1277 -1.734896,-1.64816 -2.081872,-1.90839 -0.346975,-0.26024 0.173487,-0.26024 0.04337,-0.30361 z"
         id="path4-9-1"
         inkscape:path-effect="#path-effect6-9-7"
         inkscape:original-d="m 92.383895,128.81698 c -0.780709,-0.0867 -1.561418,-0.17349 -2.342129,-0.26024 -5.031335,-2.51567 -10.062469,-5.03123 -15.093706,-7.54685 0.954219,2.9494 1.908399,5.89869 2.862601,8.84803 3.903622,1.90844 7.807089,3.8168 11.710632,5.7252 1.474703,0 2.949348,0 4.424019,0 0.173495,-1.73494 0.346982,-3.46981 0.520472,-5.20472 -1.214461,-0.52049 -2.428872,-1.04095 -3.643307,-1.56142 0.520483,0 1.040945,0 1.561418,0 z"
         transform="matrix(0,0.54640915,-0.54640915,0,109.62914,-30.825453)" />
      <path
         style="fill:#f3ad58;fill-opacity:1;fill-rule:evenodd;stroke:#f7dde6;stroke-width:0.2;stroke-linecap:round;stroke-linejoin:round;paint-order:stroke fill markers"
         d="m 91.733307,128.77361 c -0.130116,-0.0434 -0.91083,-0.13012 -3.816854,-1.43133 -2.906023,-1.30121 -7.937155,-3.81677 -9.975665,-3.59988 -2.038509,0.21689 -1.084327,3.16618 1.344585,5.59507 2.428911,2.42889 6.332377,4.33725 9.0215,5.29145 2.689123,0.9542 4.163768,0.9542 4.987851,0.0867 0.824082,-0.86747 0.997569,-2.60234 0.477083,-3.73004 -0.520486,-1.1277 -1.734896,-1.64816 -2.081872,-1.90839 -0.346975,-0.26024 0.173487,-0.26024 0.04337,-0.30361 z"
         id="path6-0-4"
         inkscape:path-effect="#path-effect9-9-0"
         inkscape:original-d="m 92.383895,128.81698 c -0.780709,-0.0867 -1.561418,-0.17349 -2.342129,-0.26024 -5.031335,-2.51567 -10.062469,-5.03123 -15.093706,-7.54685 0.954219,2.9494 1.908399,5.89869 2.862601,8.84803 3.903622,1.90844 7.807089,3.8168 11.710632,5.7252 1.474703,0 2.949348,0 4.424019,0 0.173495,-1.73494 0.346982,-3.46981 0.520472,-5.20472 -1.214461,-0.52049 -2.428872,-1.04095 -3.643307,-1.56142 0.520483,0 1.040945,0 1.561418,0 z"
         transform="matrix(0,-0.54640915,-0.54640915,0,98.253499,96.680885)" />
      <path
         style="fill:#f3ad58;fill-opacity:1;fill-rule:evenodd;stroke:#f7dde6;stroke-width:0.2;stroke-linecap:round;stroke-linejoin:round;paint-order:stroke fill markers"
         d="m 91.733307,128.77361 c -0.130116,-0.0434 -0.91083,-0.13012 -3.816854,-1.43133 -2.906023,-1.30121 -7.937155,-3.81677 -9.975665,-3.59988 -2.038509,0.21689 -1.084327,3.16618 1.344585,5.59507 2.428911,2.42889 6.332377,4.33725 9.0215,5.29145 2.689123,0.9542 4.163768,0.9542 4.987851,0.0867 0.824082,-0.86747 0.997569,-2.60234 0.477083,-3.73004 -0.520486,-1.1277 -1.734896,-1.64816 -2.081872,-1.90839 -0.346975,-0.26024 0.173487,-0.26024 0.04337,-0.30361 z"
         id="path7-7-9"
         inkscape:path-effect="#path-effect11-3-1"
         inkscape:original-d="m 92.383895,128.81698 c -0.780709,-0.0867 -1.561418,-0.17349 -2.342129,-0.26024 -5.031335,-2.51567 -10.062469,-5.03123 -15.093706,-7.54685 0.954219,2.9494 1.908399,5.89869 2.862601,8.84803 3.903622,1.90844 7.807089,3.8168 11.710632,5.7252 1.474703,0 2.949348,0 4.424019,0 0.173495,-1.73494 0.346982,-3.46981 0.520472,-5.20472 -1.214461,-0.52049 -2.428872,-1.04095 -3.643307,-1.56142 0.520483,0 1.040945,0 1.561418,0 z"
         transform="matrix(0,-0.54640915,-0.54640915,0,104.08351,96.680885)" />
      <path
         style="fill:#f3ad58;fill-opacity:1;fill-rule:evenodd;stroke:#f7dde6;stroke-width:0.2;stroke-linecap:round;stroke-linejoin:round;paint-order:stroke fill markers"
         d="m 91.733307,128.77361 c -0.130116,-0.0434 -0.91083,-0.13012 -3.816854,-1.43133 -2.906023,-1.30121 -7.937155,-3.81677 -9.975665,-3.59988 -2.038509,0.21689 -1.084327,3.16618 1.344585,5.59507 2.428911,2.42889 6.332377,4.33725 9.0215,5.29145 2.689123,0.9542 4.163768,0.9542 4.987851,0.0867 0.824082,-0.86747 0.997569,-2.60234 0.477083,-3.73004 -0.520486,-1.1277 -1.734896,-1.64816 -2.081872,-1.90839 -0.346975,-0.26024 0.173487,-0.26024 0.04337,-0.30361 z"
         id="path8-5-5"
         inkscape:path-effect="#path-effect13-2-7"
         inkscape:original-d="m 92.383895,128.81698 c -0.780709,-0.0867 -1.561418,-0.17349 -2.342129,-0.26024 -5.031335,-2.51567 -10.062469,-5.03123 -15.093706,-7.54685 0.954219,2.9494 1.908399,5.89869 2.862601,8.84803 3.903622,1.90844 7.807089,3.8168 11.710632,5.7252 1.474703,0 2.949348,0 4.424019,0 0.173495,-1.73494 0.346982,-3.46981 0.520472,-5.20472 -1.214461,-0.52049 -2.428872,-1.04095 -3.643307,-1.56142 0.520483,0 1.040945,0 1.561418,0 z"
         transform="matrix(0,-0.54640915,-0.54640915,0,108.34938,92.130624)" />
    </g>
    <g
       id="g6"
       inkscape:export-filename="Crab.svg"
       inkscape:export-xdpi="96"
       inkscape:export-ydpi="96"
       style="fill:#f3ad58"
       transform="matrix(-1.1252743,1.1252743,-1.1252743,-1.1252743,203.79501,56.173565)">
      <ellipse
         style="fill:#f3ad58;fill-opacity:1;fill-rule:evenodd;stroke:#f7dde6;stroke-width:0.109282;stroke-linecap:round;stroke-linejoin:round;paint-order:stroke fill markers"
         id="ellipse1"
         cx="30.603287"
         cy="-30.401247"
         rx="17.245047"
         ry="10.658025"
         transform="rotate(90)" />
      <path
         style="fill:#f3ad58;fill-opacity:1;fill-rule:evenodd;stroke:#f7dde6;stroke-width:0.2;stroke-linecap:round;stroke-linejoin:round;paint-order:stroke fill markers"
         d="m 91.733307,128.77361 c -0.130116,-0.0434 -0.91083,-0.13012 -3.816854,-1.43133 -2.906023,-1.30121 -7.937155,-3.81677 -9.975665,-3.59988 -2.038509,0.21689 -1.084327,3.16618 1.344585,5.59507 2.428911,2.42889 6.332377,4.33725 9.0215,5.29145 2.689123,0.9542 4.163768,0.9542 4.987851,0.0867 0.824082,-0.86747 0.997569,-2.60234 0.477083,-3.73004 -0.520486,-1.1277 -1.734896,-1.64816 -2.081872,-1.90839 -0.346975,-0.26024 0.173487,-0.26024 0.04337,-0.30361 z"
         id="path1"
         inkscape:path-effect="#path-effect7"
         inkscape:original-d="m 92.383895,128.81698 c -0.780709,-0.0867 -1.561418,-0.17349 -2.342129,-0.26024 -5.031335,-2.51567 -10.062469,-5.03123 -15.093706,-7.54685 0.954219,2.9494 1.908399,5.89869 2.862601,8.84803 3.903622,1.90844 7.807089,3.8168 11.710632,5.7252 1.474703,0 2.949348,0 4.424019,0 0.173495,-1.73494 0.346982,-3.46981 0.520472,-5.20472 -1.214461,-0.52049 -2.428872,-1.04095 -3.643307,-1.56142 0.520483,0 1.040945,0 1.561418,0 z"
         transform="matrix(0,0.54640915,-0.54640915,0,99.533261,-35.375709)" />
      <path
         style="fill:#f3ad58;fill-opacity:1;fill-rule:evenodd;stroke:#f7dde6;stroke-width:0.2;stroke-linecap:round;stroke-linejoin:round;paint-order:stroke fill markers"
         d="m 91.733307,128.77361 c -0.130116,-0.0434 -0.91083,-0.13012 -3.816854,-1.43133 -2.906023,-1.30121 -7.937155,-3.81677 -9.975665,-3.59988 -2.038509,0.21689 -1.084327,3.16618 1.344585,5.59507 2.428911,2.42889 6.332377,4.33725 9.0215,5.29145 2.689123,0.9542 4.163768,0.9542 4.987851,0.0867 0.824082,-0.86747 0.997569,-2.60234 0.477083,-3.73004 -0.520486,-1.1277 -1.734896,-1.64816 -2.081872,-1.90839 -0.346975,-0.26024 0.173487,-0.26024 0.04337,-0.30361 z"
         id="path2"
         inkscape:path-effect="#path-effect9"
         inkscape:original-d="m 92.383895,128.81698 c -0.780709,-0.0867 -1.561418,-0.17349 -2.342129,-0.26024 -5.031335,-2.51567 -10.062469,-5.03123 -15.093706,-7.54685 0.954219,2.9494 1.908399,5.89869 2.862601,8.84803 3.903622,1.90844 7.807089,3.8168 11.710632,5.7252 1.474703,0 2.949348,0 4.424019,0 0.173495,-1.73494 0.346982,-3.46981 0.520472,-5.20472 -1.214461,-0.52049 -2.428872,-1.04095 -3.643307,-1.56142 0.520483,0 1.040945,0 1.561418,0 z"
         transform="matrix(0,0.54640915,-0.54640915,0,105.36328,-35.375711)" />
      <path
         style="fill:#f3ad58;fill-opacity:1;fill-rule:evenodd;stroke:#f7dde6;stroke-width:0.2;stroke-linecap:round;stroke-linejoin:round;paint-order:stroke fill markers"
         d="m 91.733307,128.77361 c -0.130116,-0.0434 -0.91083,-0.13012 -3.816854,-1.43133 -2.906023,-1.30121 -7.937155,-3.81677 -9.975665,-3.59988 -2.038509,0.21689 -1.084327,3.16618 1.344585,5.59507 2.428911,2.42889 6.332377,4.33725 9.0215,5.29145 2.689123,0.9542 4.163768,0.9542 4.987851,0.0867 0.824082,-0.86747 0.997569,-2.60234 0.477083,-3.73004 -0.520486,-1.1277 -1.734896,-1.64816 -2.081872,-1.90839 -0.346975,-0.26024 0.173487,-0.26024 0.04337,-0.30361 z"
         id="path3"
         inkscape:path-effect="#path-effect11"
         inkscape:original-d="m 92.383895,128.81698 c -0.780709,-0.0867 -1.561418,-0.17349 -2.342129,-0.26024 -5.031335,-2.51567 -10.062469,-5.03123 -15.093706,-7.54685 0.954219,2.9494 1.908399,5.89869 2.862601,8.84803 3.903622,1.90844 7.807089,3.8168 11.710632,5.7252 1.474703,0 2.949348,0 4.424019,0 0.173495,-1.73494 0.346982,-3.46981 0.520472,-5.20472 -1.214461,-0.52049 -2.428872,-1.04095 -3.643307,-1.56142 0.520483,0 1.040945,0 1.561418,0 z"
         transform="matrix(0,0.54640915,-0.54640915,0,109.62914,-30.825453)" />
      <path
         style="fill:#f3ad58;fill-opacity:1;fill-rule:evenodd;stroke:#f7dde6;stroke-width:0.2;stroke-linecap:round;stroke-linejoin:round;paint-order:stroke fill markers"
         d="m 91.733307,128.77361 c -0.130116,-0.0434 -0.91083,-0.13012 -3.816854,-1.43133 -2.906023,-1.30121 -7.937155,-3.81677 -9.975665,-3.59988 -2.038509,0.21689 -1.084327,3.16618 1.344585,5.59507 2.428911,2.42889 6.332377,4.33725 9.0215,5.29145 2.689123,0.9542 4.163768,0.9542 4.987851,0.0867 0.824082,-0.86747 0.997569,-2.60234 0.477083,-3.73004 -0.520486,-1.1277 -1.734896,-1.64816 -2.081872,-1.90839 -0.346975,-0.26024 0.173487,-0.26024 0.04337,-0.30361 z"
         id="path4"
         inkscape:path-effect="#path-effect13"
         inkscape:original-d="m 92.383895,128.81698 c -0.780709,-0.0867 -1.561418,-0.17349 -2.342129,-0.26024 -5.031335,-2.51567 -10.062469,-5.03123 -15.093706,-7.54685 0.954219,2.9494 1.908399,5.89869 2.862601,8.84803 3.903622,1.90844 7.807089,3.8168 11.710632,5.7252 1.474703,0 2.949348,0 4.424019,0 0.173495,-1.73494 0.346982,-3.46981 0.520472,-5.20472 -1.214461,-0.52049 -2.428872,-1.04095 -3.643307,-1.56142 0.520483,0 1.040945,0 1.561418,0 z"
         transform="matrix(0,-0.54640915,-0.54640915,0,98.253499,96.680885)" />
      <path
         style="fill:#f3ad58;fill-opacity:1;fill-rule:evenodd;stroke:#f7dde6;stroke-width:0.2;stroke-linecap:round;stroke-linejoin:round;paint-order:stroke fill markers"
         d="m 91.733307,128.77361 c -0.130116,-0.0434 -0.91083,-0.13012 -3.816854,-1.43133 -2.906023,-1.30121 -7.937155,-3.81677 -9.975665,-3.59988 -2.038509,0.21689 -1.084327,3.16618 1.344585,5.59507 2.428911,2.42889 6.332377,4.33725 9.0215,5.29145 2.689123,0.9542 4.163768,0.9542 4.987851,0.0867 0.824082,-0.86747 0.997569,-2.60234 0.477083,-3.73004 -0.520486,-1.1277 -1.734896,-1.64816 -2.081872,-1.90839 -0.346975,-0.26024 0.173487,-0.26024 0.04337,-0.30361 z"
         id="path5"
         inkscape:path-effect="#path-effect15"
         inkscape:original-d="m 92.383895,128.81698 c -0.780709,-0.0867 -1.561418,-0.17349 -2.342129,-0.26024 -5.031335,-2.51567 -10.062469,-5.03123 -15.093706,-7.54685 0.954219,2.9494 1.908399,5.89869 2.862601,8.84803 3.903622,1.90844 7.807089,3.8168 11.710632,5.7252 1.474703,0 2.949348,0 4.424019,0 0.173495,-1.73494 0.346982,-3.46981 0.520472,-5.20472 -1.214461,-0.52049 -2.428872,-1.04095 -3.643307,-1.56142 0.520483,0 1.040945,0 1.561418,0 z"
         transform="matrix(0,-0.54640915,-0.54640915,0,104.08351,96.680885)" />
      <path
         style="fill:#f3ad58;fill-opacity:1;fill-rule:evenodd;stroke:#f7dde6;stroke-width:0.2;stroke-linecap:round;stroke-linejoin:round;paint-order:stroke fill markers"
         d="m 91.733307,128.77361 c -0.130116,-0.0434 -0.91083,-0.13012 -3.816854,-1.43133 -2.906023,-1.30121 -7.937155,-3.81677 -9.975665,-3.59988 -2.038509,0.21689 -1.084327,3.16618 1.344585,5.59507 2.428911,2.42889 6.332377,4.33725 9.0215,5.29145 2.689123,0.9542 4.163768,0.9542 4.987851,0.0867 0.824082,-0.86747 0.997569,-2.60234 0.477083,-3.73004 -0.520486,-1.1277 -1.734896,-1.64816 -2.081872,-1.90839 -0.346975,-0.26024 0.173487,-0.26024 0.04337,-0.30361 z"
         id="path6"
         inkscape:path-effect="#path-effect17"
         inkscape:original-d="m 92.383895,128.81698 c -0.780709,-0.0867 -1.561418,-0.17349 -2.342129,-0.26024 -5.031335,-2.51567 -10.062469,-5.03123 -15.093706,-7.54685 0.954219,2.9494 1.908399,5.89869 2.862601,8.84803 3.903622,1.90844 7.807089,3.8168 11.710632,5.7252 1.474703,0 2.949348,0 4.424019,0 0.173495,-1.73494 0.346982,-3.46981 0.520472,-5.20472 -1.214461,-0.52049 -2.428872,-1.04095 -3.643307,-1.56142 0.520483,0 1.040945,0 1.561418,0 z"
         transform="matrix(0,-0.54640915,-0.54640915,0,108.34938,92.130624)" />
    </g>
    <text
       xml:space="preserve"
       style="font-weight:bold;font-size:19.5268px;font-family:Candara;-inkscape-font-specification:'Candara Bold';text-align:center;text-anchor:middle;fill:#a40000;fill-rule:evenodd;stroke:#a40000;stroke-width:1;stroke-linecap:round;stroke-linejoin:round;stroke-dasharray:none;paint-order:stroke fill markers"
       x="92.003059"
       y="23.14699"
       id="text17"><tspan
         sodipodi:role="line"
         id="tspan17"
         style="stroke-width:1;stroke-dasharray:none"
         x="92.003059"
         y="23.14699">CRAB KINGDOM</tspan><tspan
         sodipodi:role="line"
         style="stroke-width:1;stroke-dasharray:none"
         x="92.003059"
         y="47.555489"
         id="tspan18">(Prototype)</tspan></text>
    <text
       xml:space="preserve"
       style="font-weight:bold;font-size:3.175px;font-family:Candara;-inkscape-font-specification:'Candara Bold';text-align:center;text-anchor:middle;fill:#a40000;fill-rule:evenodd;stroke:#a40000;stroke-width:1;stroke-linecap:round;stroke-linejoin:round;stroke-dasharray:none;paint-order:stroke fill markers"
       x="42.691452"
       y="165.24536"
       id="text19"><tspan
         sodipodi:role="line"
         id="tspan19"
         style="stroke-width:1"
         x="42.691452"
         y="165.24536">s</tspan></text>
  </g>
</svg>
